<?xml version="1.0" encoding="utf-8"?>
<!-- Generator: Adobe Illustrator 16.0.4, SVG Export Plug-In . SVG Version: 6.00 Build 0)  -->
<!DOCTYPE svg PUBLIC "-//W3C//DTD SVG 1.1//EN" "http://www.w3.org/Graphics/SVG/1.1/DTD/svg11.dtd">
<svg version="1.1" id="Capa_1" xmlns="http://www.w3.org/2000/svg" xmlns:xlink="http://www.w3.org/1999/xlink" x="0px" y="0px"
	 width="60px" height="50px" viewBox="0 0 16 16" enable-background="new 0 0 60 50" xml:space="preserve">
<path fill="#FFF" d="M13,0H3C1.343,0,0,1.343,0,3v10c0,1.657,1.343,3,3,3h10c1.657,0,3-1.343,3-3V3C16,1.343,14.657,0,13,0z M12.752,5.823
	c-0.537,3.022-3.534,5.581-4.435,6.165c-0.902,0.584-1.724-0.234-2.023-0.854C5.953,10.43,4.93,6.602,4.662,6.285
	C4.394,5.968,3.59,6.602,3.59,6.602L3.2,6.091c0,0,1.633-1.949,2.875-2.194C7.392,3.638,7.39,5.92,7.707,7.186
	c0.307,1.225,0.512,1.925,0.78,1.925s0.781-0.682,1.34-1.729c0.562-1.048-0.024-1.974-1.121-1.316
	C9.146,3.435,13.288,2.802,12.752,5.823z"/>
</svg>
