<?xml version="1.0" encoding="utf-8"?>
<!-- Generator: Adobe Illustrator 16.0.0, SVG Export Plug-In . SVG Version: 6.00 Build 0)  -->
<!DOCTYPE svg PUBLIC "-//W3C//DTD SVG 1.1//EN" "http://www.w3.org/Graphics/SVG/1.1/DTD/svg11.dtd">
<svg version="1.1" id="Layer_4" xmlns="http://www.w3.org/2000/svg" xmlns:xlink="http://www.w3.org/1999/xlink" x="0px" y="0px"
	 width="60px" height="50px" viewBox="0 0 100 100" enable-background="new 0 0 100 100" xml:space="preserve">
<path fill="#FFF" fill-rule="evenodd" clip-rule="evenodd" d="M96.764,27.1c-1.186-5.152-5.4-8.953-10.473-9.52
	c-12.012-1.341-24.172-1.348-36.275-1.341c-12.105-0.007-24.266,0-36.279,1.341c-5.07,0.567-9.281,4.368-10.467,9.52
	C1.582,34.437,1.563,42.446,1.563,50s0,15.562,1.688,22.899c1.184,5.151,5.396,8.952,10.469,9.519
	c12.012,1.342,24.172,1.349,36.277,1.342c12.107,0.007,24.264,0,36.275-1.342c5.07-0.567,9.285-4.368,10.471-9.519
	c1.689-7.337,1.695-15.345,1.695-22.899S98.451,34.437,96.764,27.1z M37.499,65.036c0-10.715,0-21.32,0-32.037
	c10.267,5.357,20.467,10.678,30.798,16.068C57.996,54.409,47.793,59.698,37.499,65.036z"/>
</svg>
